Inverse Dynamics Generalized Forces
version=1
nRows=5
nColumns=34
inDegrees=no
endheader 
time	pelvis_tilt_moment	pelvis_list_moment	pelvis_rotation_moment	pelvis_tx_force	pelvis_ty_force	pelvis_tz_force	hip_flexion_l_moment	hip_adduction_l_moment	hip_rotation_l_moment	hip_flexion_r_moment	hip_adduction_r_moment	hip_rotation_r_moment	knee_angle_l_moment	knee_angle_r_moment	ankle_angle_l_moment	ankle_angle_r_moment	subtalar_angle_l_moment	subtalar_angle_r_moment	mtp_angle_l_moment	mtp_angle_r_moment	lumbar_extension_moment	lumbar_bending_moment	lumbar_rotation_moment	arm_flex_l_moment	arm_add_l_moment	arm_rot_l_moment	arm_flex_r_moment	arm_add_r_moment	arm_rot_r_moment	elbow_flex_l_moment	elbow_flex_r_moment	pro_sup_l_moment	pro_sup_r_moment	
          5.70000000	          0.00000011	          0.00000033	         -0.00000008	         -0.00000006	          0.00000053	          0.00000037	         13.26134448	          7.87409402	         -0.29117862	        -21.69809281	          1.83793238	          0.36649462	         -6.41299475	          7.26587776	          0.41827821	         -0.36576694	          0.07065484	         -0.16492328	         -0.03128939	          0.01357592	         16.30209158	         -4.71934781	         10.03427707	         -8.07400259	       -104.17612215	         36.69423232	         54.26511983	        -95.14430492	        -39.53378430	         29.56007487	         30.92878934	          0.46237996	         -4.26291922	
          5.71000000	         -0.00000005	         -0.00000077	          0.00000004	          0.00000027	          0.00000009	          0.00000075	         25.82676552	         16.25810463	         -0.57804142	         -5.62512475	          4.61024002	         -0.34323782	         -6.61662214	          4.76843835	          0.25904685	          0.00909874	          0.12385720	         -0.05245192	         -0.01703404	         -0.00543015	        -34.75425950	         -0.76402435	         42.40651019	         31.66430674	       -115.01866358	         36.93725491	         -1.04566311	       -105.98249514	          4.54635248	         42.61230243	         14.06363683	          0.22777625	         -3.44731758	
          5.72000000	         -0.00000273	          0.00000039	         -0.00000159	          0.00000273	         -0.00000046	         -0.00000129	         45.17956492	         23.24680049	         -1.62889734	          6.71062897	          7.87381073	          0.72849214	          3.97851352	          9.57075842	          0.40822756	          1.27899080	         -0.09274869	          0.17154407	         -0.00069918	         -0.06518428	       -100.67188039	         28.48250953	         74.84778615	         61.23909376	        -58.09896005	         -2.28171461	        -39.16715115	       -111.13111659	         45.14549859	         32.81647812	         51.07116855	         -1.22238593	         -1.55002221	
          5.73000000	          0.00000182	         -0.00000169	          0.00000070	         -0.00000000	          0.00000096	          0.00000244	         39.31778659	         20.98659717	         -1.05571247	         13.71776362	          2.24616306	          0.49953706	         -4.44272883	         -3.21004597	          2.17171076	         -0.16080924	         -0.78910272	          0.61699334	         -0.09649862	          0.00785365	        -16.68999363	         18.52299333	         17.97535865	          9.10024612	         -6.26366148	        -10.37455497	         12.60612285	       -118.08826505	         83.33842529	         22.66399511	         22.60762479	         -1.20497809	         12.35424472	
          5.74000000	          0.00000141	          0.00000033	          0.00000138	         -0.00000117	          0.00000021	         -0.00000031	         33.52938983	         12.94240474	         -0.57913286	         16.71003620	          0.71404005	          1.21779576	         -6.12476088	         -3.28213068	          1.36216306	          0.05653326	         -0.47726729	          0.56224304	         -0.05353631	          0.00874481	        -41.59236178	         10.89073711	         26.49274543	         15.27183929	         32.10793271	        -17.74486562	         49.26762517	       -127.61398700	         93.75791409	         16.73834266	        -26.16427017	         -1.10141903	         16.99355307	
